<svg width="217" height="60" viewBox="0 0 217 60" fill="none" xmlns="http://www.w3.org/2000/svg">
<g clip-path="url(#clip0_2016_156)">
<mask id="mask0_2016_156" style="mask-type:luminance" maskUnits="userSpaceOnUse" x="0" y="0" width="62" height="61">
<path fill-rule="evenodd" clip-rule="evenodd" d="M15.2355 0.027315L17.8584 0L45.1401 0.0109274C45.5543 0.0145695 45.8125 0.0200307 46.0688 0.027315C47.4211 0.0619154 48.7864 0.138402 50.1238 0.37332C51.4636 0.594923 52.7624 1.00977 53.9782 1.60437C55.1893 2.20168 56.3001 2.9811 57.2605 3.91531C58.2213 4.84508 59.0257 5.91826 59.6437 7.0949C60.2753 8.29135 60.6709 9.51693 60.9143 10.8317C61.1558 12.1284 61.2356 13.4505 61.2709 14.7616C61.2895 15.3626 61.2969 15.9635 61.2988 16.5663L61.3025 17.6389V41.3803C61.3025 42.0941 61.3025 42.8098 61.2988 43.5255C61.2951 44.1265 61.2895 44.7274 61.2709 45.3284C61.2338 46.6395 61.1558 47.9635 60.9143 49.2582C60.6851 50.5595 60.2567 51.8193 59.6437 52.9951C59.0253 54.1721 58.221 55.2458 57.2605 56.1765C56.2964 57.1104 55.1889 57.8902 53.9782 58.4874C52.7625 59.0821 51.4636 59.497 50.1238 59.7185C48.7864 59.9516 47.4211 60.0281 46.0688 60.0645L41.9934 60.0955L16.1624 60.0809C15.8534 60.0776 15.5444 60.0715 15.2355 60.0627C13.8832 60.0299 12.518 59.9516 11.1805 59.7185C9.8414 59.4968 8.54314 59.082 7.32799 58.4874C4.89564 57.2874 2.91167 55.3653 1.65878 52.9951C1.04668 51.8189 0.618381 50.5592 0.388225 49.2582C0.146745 47.9635 0.0687283 46.6395 0.0334351 45.3302C0.0148597 44.7292 0.00928818 44.1265 0.0055731 43.5255L0 42.4492V18.7115C0 17.9977 4.81796e-07 17.282 0.0055731 16.5681C0.00928818 15.9672 0.0167172 15.3662 0.0334351 14.7634C0.0705858 13.4523 0.148602 12.1302 0.388225 10.8336C0.618244 9.53255 1.04655 8.27284 1.65878 7.09672C2.90984 4.72583 4.8935 2.80343 7.32613 1.60437C8.54191 1.00975 9.84079 0.594897 11.1805 0.37332C12.518 0.140223 13.8832 0.0637365 15.2355 0.027315Z" fill="white"/>
</mask>
<g mask="url(#mask0_2016_156)">
<path d="M0 -0.00390625H61.2107V60.0015H0V-0.00390625Z" fill="#19AA1E"/>
<path fill-rule="evenodd" clip-rule="evenodd" d="M0 -0.00390625H61.2107V19.6834L0 10.3088V-0.00390625Z" fill="#FFB919"/>
<path fill-rule="evenodd" clip-rule="evenodd" d="M0 53.4361L61.2107 44.0615V59.9997H0V53.4361Z" fill="#82D714"/>
<path fill-rule="evenodd" clip-rule="evenodd" d="M0 9.12354L21.3662 12.3963C24.0258 10.7454 27.1899 9.8399 30.6044 9.8399C35.3339 9.8399 39.5849 11.5763 42.6785 14.6235C43.068 15.009 43.4352 15.4108 43.7821 15.829L61.2107 18.4981V20.8708L45.5515 18.4708C46.7234 20.6672 47.3374 23.1084 47.3412 25.5872C47.3412 28.8017 46.6086 32.0072 45.0915 35.2254L45.047 35.3235L44.4015 36.6763H42.8807C39.7351 36.6763 37.6504 37.5981 36.2854 39.2326C35.2152 40.5144 34.5957 42.2453 34.388 44.1326L34.3806 44.1908L34.3509 44.4926L34.3379 44.6235L34.312 44.8799C34.2322 45.7235 34.1803 46.4381 34.1525 47.0199L61.2107 42.8744V45.2472L0 54.6235V52.2508L27.0879 48.1017L27.0768 47.569L27.0731 47.4199L27.0694 47.3417L27.0656 47.2235C27.0415 46.5781 26.9803 45.7508 26.8839 44.7472L26.8653 44.5563L26.832 44.2272C26.6391 42.329 26.0289 40.5781 24.9587 39.2763C23.6103 37.6308 21.5461 36.6944 18.4246 36.6763H16.8073L16.1637 35.3235C14.6169 32.0726 13.8676 28.8344 13.8676 25.5872C13.8676 21.5035 15.5572 17.5544 18.5322 14.6235L18.7918 14.3744L0 11.4944V9.12354Z" fill="white"/>
<path fill-rule="evenodd" clip-rule="evenodd" d="M30.6044 12.1836C39.1509 12.1836 44.9505 18.6309 44.9505 25.5872C44.9505 28.38 44.3292 31.2854 42.8788 34.3327C34.4715 34.3327 32.3961 40.2345 32.0029 43.9509L31.9769 44.1963C31.8452 45.5236 31.7673 46.5872 31.7469 47.3872L29.4693 47.7363V47.6636C29.4376 46.482 29.356 45.3022 29.2245 44.1272L29.219 44.0618C28.8554 40.3545 26.8245 34.3327 18.3319 34.3327C16.8796 31.2854 16.2583 28.38 16.2583 25.5872C16.2583 18.6309 22.0598 12.1836 30.6044 12.1836Z" fill="#0073FA"/>
</g>
<path fill-rule="evenodd" clip-rule="evenodd" d="M90.6281 10.9092C81.1988 10.9092 74.1287 16.4055 74.188 25.951H82.9515C82.8309 22.1328 85.3682 18.4292 90.6281 18.4292C94.6157 18.4292 97.1548 20.9746 97.1548 24.2146C97.1548 27.571 94.3728 29.4219 89.9029 31.5055C84.0402 34.2237 80.5348 35.4964 74.188 37.5201V48.5128H106.823V40.991H86.034C89.0627 39.7819 92.0117 38.4546 94.6769 37.231C101.747 33.9928 105.916 30.3474 105.916 23.811C105.916 15.9419 99.7532 10.9092 90.6281 10.9092ZM120.12 19.0074H137.042V11.4874H111.659V48.5128H120.12V19.0074ZM150.338 11.4874H141.877V48.5128H150.277L166.051 24.851V48.5128H174.513V11.4874H166.051L150.338 35.1492V11.4874ZM217 34.6274H208.237C206.907 38.7364 202.858 41.571 198.084 41.571C191.133 41.571 186.6 35.8437 186.6 30.0001C186.6 24.1565 191.012 18.4292 198.325 18.4292C203.16 18.4292 206.907 21.2655 208.237 25.3728H217C215.731 17.1001 208.902 10.9092 198.084 10.9092C186.117 10.9092 178.138 18.951 178.138 30.0001C178.138 41.0492 186.117 49.091 198.084 49.091C208.902 49.091 215.731 43.0183 217 34.6274Z" fill="#262626"/>
</g>
<defs>
<clipPath id="clip0_2016_156">
<rect width="217" height="60" fill="white"/>
</clipPath>
</defs>
</svg>
