<svg width="157" height="60" viewBox="0 0 157 60" fill="none" xmlns="http://www.w3.org/2000/svg">
<g clip-path="url(#clip0_2016_174)">
<path d="M15.69 32.6982L6.71655 52.6661H0.170227L10.0263 31.3133C5.3925 28.9813 2.30332 24.7545 2.30332 16.9567C2.30332 6.02531 9.29081 0.55957 17.6023 0.55957H26.0607V52.6661H20.3973V32.6982H15.69ZM20.3973 5.29655H17.3815C12.8213 5.29655 8.40811 8.28442 8.40811 16.9567C8.40811 25.3374 12.4536 28.0337 17.3815 28.0337H20.3973V5.29655Z" fill="#FF0000"/>
<path d="M53.3488 15.9363V52.6661H47.6852V36.196H39.1531V52.6661H33.4161V15.9363H39.1531V31.5317H47.6852V15.9363H53.3488ZM82.8435 59.8809H77.6947V52.6661H61.8073V59.8809H56.6585V48.002H58.9388C62.3222 40.2043 62.6899 28.8353 62.6899 19.07V15.9363H79.9015V48.002H82.8435V59.8809ZM74.2378 20.5276H67.8387V21.1834C67.8387 28.9083 67.4709 40.2043 64.3817 48.002H74.2378V20.5276ZM98.6574 53.176C91.008 53.176 86.3006 47.1275 86.3006 35.8319C86.3006 24.0257 89.6106 15.4263 97.4807 15.4263C103.659 15.4263 107.705 20.0174 107.705 32.4795V35.6131H92.2582C92.2582 43.9208 94.6119 48.2937 99.1721 48.2937C102.408 48.2937 104.983 46.8362 106.454 45.8158L107.778 50.1882C105.165 52.1751 101.951 53.2281 98.6574 53.176ZM92.3318 30.9488H101.82C101.82 24.6815 100.79 20.0904 97.4807 20.0904C93.95 20.0904 92.6998 24.39 92.3318 30.9488ZM119.326 34.3744V52.6661H113.589V15.9363H119.326V32.9165L128.225 15.9363H134.036L124.842 33.2082L135.36 52.6661H129.108L119.326 34.3744ZM136.096 34.3015C136.096 22.7868 140.583 15.4263 149.262 15.4263C152.571 15.4263 154.484 16.3008 156.102 17.321L155.293 22.7138C153.748 21.402 151.542 20.1632 149.188 20.1632C145.069 20.1632 142.127 24.7544 142.127 34.0098C142.127 43.1921 144.334 48.4391 148.967 48.4391C151.26 48.4696 153.485 47.6658 155.219 46.18L156.543 50.407C154.415 52.2637 151.655 53.2531 148.82 53.176C140.877 53.176 136.096 46.8362 136.096 34.3015Z" fill="black"/>
</g>
<defs>
<clipPath id="clip0_2016_174">
<rect width="157" height="60" fill="white"/>
</clipPath>
</defs>
</svg>
